<svg xmlns="http://www.w3.org/2000/svg" version="1.1" xmlns:xlink="http://www.w3.org/1999/xlink" xmlns:svgjs="http://svgjs.dev/svgjs" width="200" height="200"><svg xmlns="http://www.w3.org/2000/svg" width="200" height="200">
<path style="fill:#0cbc36; stroke:none;" d="M112 142C92.5497 149.264 55.7752 161.727 41.0807 139.959C32.986 127.968 37.9609 110.343 42.701 98C57.3537 59.8452 91.6686 40.6462 131 43C126.035 20.7537 97.9366 29.9904 84 36.7641C55.0935 50.8136 19.1827 84.3588 18.0405 119C16.5416 164.459 89.8197 177.175 112 142M86 127C126.246 125.574 146.695 130.806 160 173C174.895 166.895 171.048 145.711 163.815 135.001C149.998 114.544 101.58 101.75 86 127z"></path>
</svg><style>@media (prefers-color-scheme: light) { :root { filter: none; } }
@media (prefers-color-scheme: dark) { :root { filter: none; } }
</style></svg>